<svg xmlns="http://www.w3.org/2000/svg" viewBox="0 0 24 24" fill="#1C1917">
  <!-- Shield Outer Shape -->
  <path d="M12 2L20 5v6c0 5.25-3.41 10.18-8 11-4.59-.82-8-5.75-8-11V5l8-3z" />
  <!-- Padlock Inner Shape (Negative Space in White) -->
  <path
    fill="#FFFFFF"
    fill-rule="evenodd"
    clip-rule="evenodd"
    d="M12 7.5c-1.38 0-2.5 1.12-2.5 2.5v1.5H8.5c-.55 0-1 .45-1 1v5c0 .55.45 1 1 1h7c.55 0 1-.45 1-1v-5c0-.55-.45-1-1-1H14.5V10c0-1.38-1.12-2.5-2.5-2.5zm1.5 4V10c0-.83-.67-1.5-1.5-1.5s-1.5.67-1.5 1.5v1.5h3zM12 13c-.55 0-1 .45-1 1 0 .38.22.71.53.88l-.28.87c-.05.17.07.35.25.35h1c.18 0 .3-.18.25-.35l-.28-.87c.31-.17.53-.5.53-.88 0-.55-.45-1-1-1z"
  />
</svg>